<svg width="93" height="93" viewBox="0 0 93 93" fill="none" xmlns="http://www.w3.org/2000/svg">
<circle cx="46.5" cy="46.5" r="46.5" fill="#F4F4F4"/>
<circle cx="47" cy="47" r="38" fill="#1065CA"/>
<mask id="mask0_1052_37052" style="mask-type:alpha" maskUnits="userSpaceOnUse" x="26" y="26" width="42" height="42">
<rect x="26" y="26" width="42" height="42" fill="#1E1E1E"/>
</mask>
<g mask="url(#mask0_1052_37052)">
<path d="M31.25 45.25V31.25H45.25V45.25H31.25ZM34.75 41.75H41.75V34.75H34.75V41.75ZM31.25 62.75V48.75H45.25V62.75H31.25ZM34.75 59.25H41.75V52.25H34.75V59.25ZM48.75 45.25V31.25H62.75V45.25H48.75ZM52.25 41.75H59.25V34.75H52.25V41.75ZM59.25 62.75V59.25H62.75V62.75H59.25ZM48.75 52.25V48.75H52.25V52.25H48.75ZM52.25 55.75V52.25H55.75V55.75H52.25ZM48.75 59.25V55.75H52.25V59.25H48.75ZM52.25 62.75V59.25H55.75V62.75H52.25ZM55.75 59.25V55.75H59.25V59.25H55.75ZM55.75 52.25V48.75H59.25V52.25H55.75ZM59.25 55.75V52.25H62.75V55.75H59.25Z" fill="white"/>
</g>
</svg>
