<svg width="14" height="14" viewBox="0 0 14 14" fill="none" xmlns="http://www.w3.org/2000/svg">
<g clip-path="url(#clip0_0_4094)">
<path d="M9.72418 7.65884C10.5233 8.20134 11.0833 8.93634 11.0833 9.91634V11.6663H13.4167V9.91634C13.4167 8.64467 11.3342 7.89217 9.72418 7.65884Z" fill="#1E487B"/>
<path d="M8.75001 6.99967C10.0392 6.99967 11.0833 5.95551 11.0833 4.66634C11.0833 3.37717 10.0392 2.33301 8.75001 2.33301C8.47584 2.33301 8.21918 2.39134 7.97418 2.47301C8.45834 3.07384 8.75001 3.83801 8.75001 4.66634C8.75001 5.49467 8.45834 6.25884 7.97418 6.85967C8.21918 6.94134 8.47584 6.99967 8.75001 6.99967Z" fill="#1E487B"/>
<path d="M5.25001 6.99967C6.53918 6.99967 7.58334 5.95551 7.58334 4.66634C7.58334 3.37717 6.53918 2.33301 5.25001 2.33301C3.96084 2.33301 2.91668 3.37717 2.91668 4.66634C2.91668 5.95551 3.96084 6.99967 5.25001 6.99967ZM5.25001 3.49967C5.89168 3.49967 6.41668 4.02467 6.41668 4.66634C6.41668 5.30801 5.89168 5.83301 5.25001 5.83301C4.60834 5.83301 4.08334 5.30801 4.08334 4.66634C4.08334 4.02467 4.60834 3.49967 5.25001 3.49967Z" fill="#1E487B"/>
<path d="M5.25001 7.58301C3.69251 7.58301 0.583344 8.36468 0.583344 9.91634V11.6663H9.91668V9.91634C9.91668 8.36468 6.80751 7.58301 5.25001 7.58301ZM8.75001 10.4997H1.75001V9.92217C1.86668 9.50217 3.67501 8.74967 5.25001 8.74967C6.82501 8.74967 8.63334 9.50217 8.75001 9.91634V10.4997Z" fill="#1E487B"/>
</g>
<defs>
<clipPath id="clip0_0_4094">
<rect width="14" height="14" fill="white"/>
</clipPath>
</defs>
</svg>
