<svg width="18" height="18" viewBox="0 0 18 18" fill="none" xmlns="http://www.w3.org/2000/svg">
<path d="M9.59062 16.127L2.24813 8.78445V10.2845C2.24813 10.682 2.40563 11.0645 2.69063 11.342L8.53312 17.1845C9.11812 17.7695 10.0706 17.7695 10.6556 17.1845L15.3131 12.527C15.8981 11.942 15.8981 10.9895 15.3131 10.4045L9.59062 16.127Z" fill="white"/>
<path d="M8.53312 13.4345C9.11812 14.0195 10.0706 14.0195 10.6556 13.4345L15.3131 8.77695C15.8981 8.19195 15.8981 7.23945 15.3131 6.65445L9.47062 0.811953C9.18563 0.534453 8.80312 0.376953 8.40563 0.376953H3.74813C2.92313 0.376953 2.24813 1.05195 2.24813 1.87695V6.53445C2.24813 6.93195 2.40563 7.31445 2.69063 7.59195L8.53312 13.4345ZM5.43563 2.62695C5.95312 2.62695 6.37313 3.04695 6.37313 3.56445C6.37313 4.08195 5.95312 4.50195 5.43563 4.50195C4.91813 4.50195 4.49813 4.08195 4.49813 3.56445C4.49813 3.04695 4.91813 2.62695 5.43563 2.62695Z" fill="white"/>
</svg>
