<svg width="15" height="15" viewBox="0 0 15 15" fill="none" xmlns="http://www.w3.org/2000/svg">
<path d="M4.6875 2.5C3.48125 2.5 2.5 3.48125 2.5 4.6875C2.5 5.89375 3.48125 6.875 4.6875 6.875C5.89375 6.875 6.875 5.89375 6.875 4.6875C6.875 3.48125 5.89375 2.5 4.6875 2.5ZM4.6875 5.625C4.16875 5.625 3.75 5.20625 3.75 4.6875C3.75 4.16875 4.16875 3.75 4.6875 3.75C5.20625 3.75 5.625 4.16875 5.625 4.6875C5.625 5.20625 5.20625 5.625 4.6875 5.625ZM10.3125 8.125C9.10625 8.125 8.125 9.10625 8.125 10.3125C8.125 11.5188 9.10625 12.5 10.3125 12.5C11.5188 12.5 12.5 11.5188 12.5 10.3125C12.5 9.10625 11.5188 8.125 10.3125 8.125ZM10.3125 11.25C9.79375 11.25 9.375 10.8313 9.375 10.3125C9.375 9.79375 9.79375 9.375 10.3125 9.375C10.8313 9.375 11.25 9.79375 11.25 10.3125C11.25 10.8313 10.8313 11.25 10.3125 11.25ZM3.38125 12.5L2.5 11.6187L11.6187 2.5L12.5 3.38125L3.38125 12.5Z" fill="#1065CA"/>
</svg>
