<svg width="16" height="16" viewBox="0 0 16 16" fill="none" xmlns="http://www.w3.org/2000/svg">
<path d="M0 5.68889C0 3.69759 0 2.70194 0.387532 1.94137C0.728415 1.27235 1.27235 0.728415 1.94137 0.387532C2.70194 0 3.69759 0 5.68889 0H10.3111C12.3024 0 13.2981 0 14.0586 0.387532C14.7277 0.728415 15.2716 1.27235 15.6125 1.94137C16 2.70194 16 3.69759 16 5.68889V10.3111C16 12.3024 16 13.2981 15.6125 14.0586C15.2716 14.7277 14.7277 15.2716 14.0586 15.6125C13.2981 16 12.3024 16 10.3111 16H5.68889C3.69759 16 2.70194 16 1.94137 15.6125C1.27235 15.2716 0.728415 14.7277 0.387532 14.0586C0 13.2981 0 12.3024 0 10.3111V5.68889Z" fill="white"/>
</svg>
