<svg width="15" height="15" viewBox="0 0 15 15" fill="none" xmlns="http://www.w3.org/2000/svg">
<g clip-path="url(#clip0_0_5405)">
<path d="M11.2875 14.3727H12.325C12.85 14.3727 13.2812 13.9727 13.3438 13.4602L14.375 3.16016H11.25V0.628906H10.0188V3.16016H6.9125L7.1 4.62266C8.16875 4.91641 9.16875 5.44766 9.76875 6.03516C10.6687 6.92266 11.2875 7.84141 11.2875 9.34141V14.3727ZM0.625 13.7477V13.1289H10.0188V13.7477C10.0188 14.0914 9.7375 14.3727 9.3875 14.3727H1.25625C0.90625 14.3727 0.625 14.0914 0.625 13.7477ZM10.0188 9.37266C10.0188 4.37266 0.625 4.37266 0.625 9.37266H10.0188ZM0.6375 10.6289H10.0125V11.8789H0.6375V10.6289Z" fill="#1065CA"/>
</g>
<defs>
<clipPath id="clip0_0_5405">
<rect width="15" height="15" fill="white"/>
</clipPath>
</defs>
</svg>
