<svg width="51" height="45" viewBox="0 0 51 45" fill="none" xmlns="http://www.w3.org/2000/svg">
<path d="M25.066 36.25C28.1992 36.25 30.8625 35.1562 33.0557 32.9688C35.249 30.7812 36.3456 28.125 36.3456 25C36.3456 21.875 35.249 19.2188 33.0557 17.0312C30.8625 14.8438 28.1992 13.75 25.066 13.75C21.9327 13.75 19.2695 14.8438 17.0762 17.0312C14.8829 19.2188 13.7863 21.875 13.7863 25C13.7863 28.125 14.8829 30.7812 17.0762 32.9688C19.2695 35.1562 21.9327 36.25 25.066 36.25ZM25.066 31.25C23.3113 31.25 21.8283 30.6458 20.6168 29.4375C19.4052 28.2292 18.7995 26.75 18.7995 25C18.7995 23.25 19.4052 21.7708 20.6168 20.5625C21.8283 19.3542 23.3113 18.75 25.066 18.75C26.8206 18.75 28.3036 19.3542 29.5152 20.5625C30.7267 21.7708 31.3325 23.25 31.3325 25C31.3325 26.75 30.7267 28.2292 29.5152 29.4375C28.3036 30.6458 26.8206 31.25 25.066 31.25ZM5.01319 45C3.63456 45 2.45438 44.5104 1.47263 43.5312C0.490875 42.5521 0 41.375 0 40V10C0 8.625 0.490875 7.44792 1.47263 6.46875C2.45438 5.48958 3.63456 5 5.01319 5H12.909L17.5462 0H32.5858L37.223 5H45.1187C46.4974 5 47.6775 5.48958 48.6593 6.46875C49.641 7.44792 50.1319 8.625 50.1319 10V40C50.1319 41.375 49.641 42.5521 48.6593 43.5312C47.6775 44.5104 46.4974 45 45.1187 45H5.01319ZM5.01319 40H45.1187V10H34.967L30.3925 5H19.7394L15.1649 10H5.01319V40Z" fill="#1065CA"/>
</svg>
