<svg width="18" height="18" viewBox="0 0 18 18" fill="none" xmlns="http://www.w3.org/2000/svg">
<path d="M2.21738 8.12658H15.8043C15.5848 12.2278 12.6216 15.4684 9.02182 15.4684C5.42205 15.4684 2.43687 12.2278 2.21738 8.12658ZM8.99987 16.481C4.9172 16.481 1.55888 12.7848 1.33938 8.12658H0.0223958C0.176044 11.6709 1.91008 14.9114 4.60991 16.6835C4.7416 16.7848 4.8294 16.9367 4.8294 17.1139V18H13.1703V17.1139C13.1703 16.9367 13.2581 16.7595 13.3898 16.6835C16.1116 14.9114 17.8456 11.6709 17.9993 8.12658H16.6823C16.4409 12.7848 13.0825 16.481 8.99987 16.481ZM1.97593 4.22785C2.54662 4.53165 3.18317 4.63291 3.79776 4.55696C4.06116 4.53165 4.25871 4.35443 4.34651 4.10127C4.39041 3.97468 4.45626 3.67089 4.23676 3.39241L4.17091 3.29114C4.03921 3.11392 3.84166 3.03797 3.60021 3.06329C3.24902 3.08861 2.89782 3.03797 2.59052 2.86076C1.88813 2.50633 1.40523 1.6962 1.40523 0.810127C1.40523 0.506329 1.25159 0.227848 1.01014 0.101266L0.966237 0.0759494C0.878438 0.0253165 0.768689 0 0.68089 0C0.549191 0 0.417492 0.0506329 0.307743 0.126582C0.110195 0.303797 0.000445908 0.506329 0.000445908 0.759494C-0.0215039 2.22785 0.768689 3.59494 1.97593 4.22785ZM15.5848 4.22785C16.1555 4.53165 16.792 4.63291 17.4066 4.55696C17.67 4.53165 17.8676 4.35443 17.9554 4.10127C17.9993 3.97468 18.0651 3.67089 17.8456 3.39241L17.7798 3.29114C17.6481 3.11392 17.4505 3.03797 17.2091 3.06329C16.8579 3.08861 16.5067 3.03797 16.1994 2.86076C15.497 2.50633 15.0141 1.6962 15.0141 0.810127C15.0141 0.506329 14.8605 0.227848 14.619 0.101266L14.5751 0.0759494C14.4873 0.0253165 14.3776 0 14.2898 0C14.1581 0 14.0264 0.0506329 13.9166 0.126582C13.741 0.253165 13.6313 0.481013 13.6093 0.734177C13.5874 2.22785 14.3776 3.59494 15.5848 4.22785ZM8.78037 4.22785C9.35106 4.53165 9.98761 4.63291 10.6022 4.55696C10.8656 4.53165 11.0631 4.35443 11.1509 4.10127C11.1948 3.97468 11.2607 3.67089 11.0412 3.39241L10.9754 3.29114C10.8437 3.11392 10.6461 3.03797 10.4047 3.06329C10.0535 3.08861 9.70226 3.03797 9.39496 2.86076C8.69257 2.50633 8.20967 1.6962 8.20967 0.810127C8.20967 0.506329 8.05603 0.227848 7.81458 0.101266L7.77068 0.0759494C7.68288 0.0253165 7.57313 0 7.48533 0C7.35363 0 7.22193 0.0506329 7.11218 0.126582C6.93659 0.253165 6.82684 0.481013 6.80489 0.734177C6.78294 2.22785 7.57313 3.59494 8.78037 4.22785Z" fill="#040E24"/>
</svg>
