<svg width="40" height="40" viewBox="0 0 40 40" fill="none" xmlns="http://www.w3.org/2000/svg">
<path d="M15.6167 9.18333C15.3167 10.25 15.1667 11.3667 15.1667 12.5C15.1667 19.3 20.7 24.8333 27.5 24.8333C28.6333 24.8333 29.75 24.6833 30.8167 24.3833C29.0833 28.65 24.8833 31.6667 20 31.6667C13.5667 31.6667 8.33333 26.4333 8.33333 20C8.33333 15.1167 11.35 10.9167 15.6167 9.18333ZM20 5C11.7167 5 5 11.7167 5 20C5 28.2833 11.7167 35 20 35C28.2833 35 35 28.2833 35 20C35 19.2333 34.9333 18.4667 34.8333 17.7333C33.2 20.0167 30.5333 21.5 27.5 21.5C22.5333 21.5 18.5 17.4667 18.5 12.5C18.5 9.48333 19.9833 6.8 22.2667 5.16667C21.5333 5.06667 20.7667 5 20 5Z" fill="#223358"/>
</svg>
