<svg width="14" height="14" viewBox="0 0 14 14" fill="none" xmlns="http://www.w3.org/2000/svg">
<path fill-rule="evenodd" clip-rule="evenodd" d="M6.99416 1.16699C3.77416 1.16699 1.16666 3.78033 1.16666 7.00033C1.16666 10.2203 3.77416 12.8337 6.99416 12.8337C10.22 12.8337 12.8333 10.2203 12.8333 7.00033C12.8333 3.78033 10.22 1.16699 6.99416 1.16699ZM6.99999 11.667C4.42166 11.667 2.33332 9.57866 2.33332 7.00033C2.33332 4.42199 4.42166 2.33366 6.99999 2.33366C9.57832 2.33366 11.6667 4.42199 11.6667 7.00033C11.6667 9.57866 9.57832 11.667 6.99999 11.667ZM6.41666 7.62449L9.61916 9.54366L10.2142 8.54033L7.58332 6.95949V3.74533H6.41666V7.62449Z" fill="#1E487B"/>
</svg>
