<svg width="15" height="15" viewBox="0 0 15 15" fill="none" xmlns="http://www.w3.org/2000/svg">
<path d="M2.45859 5.9375H11.2086V7.1875H12.4586V3.4375C12.4586 2.75 11.8961 2.1875 11.2086 2.1875H10.5836V0.9375H9.33359V2.1875H4.33359V0.9375H3.08359V2.1875H2.45859C1.76484 2.1875 1.21484 2.75 1.21484 3.4375L1.20859 12.1875C1.20859 12.875 1.76484 13.4375 2.45859 13.4375H6.83359V12.1875H2.45859V5.9375ZM2.45859 3.4375H11.2086V4.6875H2.45859V3.4375ZM13.6086 9.8625L13.1648 10.3062L11.8398 8.98125L12.2836 8.5375C12.5273 8.29375 12.9211 8.29375 13.1648 8.5375L13.6086 8.98125C13.8523 9.225 13.8523 9.61875 13.6086 9.8625ZM11.3961 9.425L12.7211 10.75L9.40859 14.0625H8.08359V12.7375L11.3961 9.425Z" fill="#1065CA"/>
</svg>
