<svg width="18" height="18" viewBox="0 0 18 18" fill="none" xmlns="http://www.w3.org/2000/svg">
<path d="M9.59064 16.127L2.24814 8.78445V10.2845C2.24814 10.682 2.40564 11.0645 2.69064 11.342L8.53314 17.1845C9.11814 17.7695 10.0706 17.7695 10.6556 17.1845L15.3131 12.527C15.8981 11.942 15.8981 10.9895 15.3131 10.4045L9.59064 16.127Z" fill="#040E24"/>
<path d="M8.53314 13.4345C9.11814 14.0195 10.0706 14.0195 10.6556 13.4345L15.3131 8.77695C15.8981 8.19195 15.8981 7.23945 15.3131 6.65445L9.47064 0.811953C9.18564 0.534453 8.80314 0.376953 8.40564 0.376953H3.74814C2.92314 0.376953 2.24814 1.05195 2.24814 1.87695V6.53445C2.24814 6.93195 2.40564 7.31445 2.69064 7.59195L8.53314 13.4345ZM5.43564 2.62695C5.95314 2.62695 6.37314 3.04695 6.37314 3.56445C6.37314 4.08195 5.95314 4.50195 5.43564 4.50195C4.91814 4.50195 4.49814 4.08195 4.49814 3.56445C4.49814 3.04695 4.91814 2.62695 5.43564 2.62695Z" fill="#040E24"/>
</svg>
