<svg width="18" height="18" viewBox="0 0 18 18" fill="none" xmlns="http://www.w3.org/2000/svg">
<path d="M16.9024 0H1.09756C0.482927 0 0 0.692657 0 1.57422V8.78416C0 9.66572 0.482927 10.3584 1.09756 10.3584H4.89512C5.02683 10.3584 5.11463 10.2324 5.11463 10.0435V10.012C5.11463 9.35088 5.4878 8.81564 5.94878 8.81564H12.0512C12.5122 8.81564 12.8854 9.35088 12.8854 10.012V10.0435C12.8854 10.2324 12.9732 10.3584 13.1049 10.3584H16.9024C17.5171 10.3584 18 9.66572 18 8.78416V1.57422C18 0.692657 17.5171 0 16.9024 0ZM3.35854 2.32985H1.82195C1.69024 2.32985 1.60244 2.20391 1.60244 2.015C1.60244 1.8261 1.69024 1.70016 1.82195 1.70016H3.35854C3.49024 1.70016 3.57805 1.8261 3.57805 2.015C3.57805 2.20391 3.46829 2.32985 3.35854 2.32985Z" fill="#040E24"/>
<path d="M3.27274 15.6253V11.3818C3.27274 11.1545 3.1091 11.0029 2.86365 11.0029C2.6182 11.0029 2.45456 11.1545 2.45456 11.3818V15.6253C2.45456 15.8526 2.6182 16.0042 2.86365 16.0042C3.1091 16.0042 3.27274 15.8147 3.27274 15.6253Z" fill="#040E24"/>
<path d="M5.7273 15.6253V11.3818C5.7273 11.1545 5.56366 11.0029 5.31821 11.0029C5.07275 11.0029 4.90912 11.1545 4.90912 11.3818V15.6253C4.90912 15.8526 5.07275 16.0042 5.31821 16.0042C5.56366 16.0042 5.7273 15.8147 5.7273 15.6253Z" fill="#040E24"/>
<path d="M8.18183 17.6214V13.3779C8.18183 13.1506 8.01819 12.999 7.77274 12.999C7.52728 12.999 7.36365 13.1506 7.36365 13.3779V17.6214C7.36365 17.8487 7.52728 18.0002 7.77274 18.0002C8.01819 18.0002 8.18183 17.8487 8.18183 17.6214Z" fill="#040E24"/>
<path d="M10.6364 17.6214V13.3779C10.6364 13.1506 10.4728 12.999 10.2273 12.999C9.98184 12.999 9.81821 13.1506 9.81821 13.3779V17.6214C9.81821 17.8487 9.98184 18.0002 10.2273 18.0002C10.4728 18.0002 10.6364 17.8487 10.6364 17.6214Z" fill="#040E24"/>
<path d="M13.0909 15.6253V11.3818C13.0909 11.1545 12.9273 11.0029 12.6818 11.0029C12.4364 11.0029 12.2727 11.1545 12.2727 11.3818V15.6253C12.2727 15.8526 12.4364 16.0042 12.6818 16.0042C12.9273 16.0042 13.0909 15.8147 13.0909 15.6253Z" fill="#040E24"/>
<path d="M15.5455 15.6253V11.3818C15.5455 11.1545 15.3818 11.0029 15.1364 11.0029C14.8909 11.0029 14.7273 11.1545 14.7273 11.3818V15.6253C14.7273 15.8526 14.8909 16.0042 15.1364 16.0042C15.3818 16.0042 15.5455 15.8147 15.5455 15.6253Z" fill="#040E24"/>
</svg>
