<svg width="40" height="40" viewBox="0 0 40 40" fill="none" xmlns="http://www.w3.org/2000/svg">
<path d="M20.8333 5.83333C28.1833 5.83333 34.1667 11.8167 34.1667 19.1667C34.1667 26.5167 28.1833 32.5 20.8333 32.5C18.8667 32.5 16.9333 32.0667 15.1167 31.2C14.6667 30.9833 14.1833 30.8833 13.6833 30.8833C13.3667 30.8833 13.05 30.9333 12.75 31.0167L7.41667 32.5833L8.98333 27.25C9.21667 26.4667 9.15 25.6167 8.8 24.8833C7.93333 23.0667 7.5 21.1333 7.5 19.1667C7.5 11.8167 13.4833 5.83333 20.8333 5.83333ZM20.8333 2.5C11.6333 2.5 4.16667 9.96667 4.16667 19.1667C4.16667 21.7333 4.76667 24.1333 5.78333 26.3167L2.5 37.5L13.6833 34.2167C15.8667 35.2333 18.2667 35.8333 20.8333 35.8333C30.0333 35.8333 37.5 28.3667 37.5 19.1667C37.5 9.96667 30.0333 2.5 20.8333 2.5Z" fill="#223358"/>
<path fill-rule="evenodd" clip-rule="evenodd" d="M22.5 12.5H19.1667V17.5H14.1667V20.8333H19.1667V25.8333H22.5V20.8333H27.5V17.5H22.5V12.5Z" fill="#223358"/>
</svg>
