<svg width="18" height="18" viewBox="0 0 18 18" fill="none" xmlns="http://www.w3.org/2000/svg">
<path fill-rule="evenodd" clip-rule="evenodd" d="M16.4941 7.5C16.7341 5.04 13.2841 3 9.00164 3C4.71914 3 1.26914 5.04 1.50914 7.5H16.4941Z" fill="#040E24"/>
<path fill-rule="evenodd" clip-rule="evenodd" d="M4.00664 10.125C4.41914 10.125 4.59164 10.23 4.86914 10.395C5.20664 10.5975 5.67164 10.875 6.50414 10.875C7.33664 10.875 7.80164 10.5975 8.13914 10.395C8.41664 10.2225 8.58164 10.125 9.00164 10.125C9.41414 10.125 9.58664 10.23 9.86414 10.395C10.2016 10.5975 10.6666 10.875 11.4991 10.875C12.3316 10.875 12.7966 10.5975 13.1341 10.395C13.4116 10.2225 13.5766 10.125 13.9966 10.125C14.4091 10.125 14.5816 10.23 14.8591 10.395C15.1966 10.5975 15.6616 10.8675 16.4866 10.875V9.39C16.4866 9.39 15.8941 9.27 15.6166 9.105C15.2791 8.9025 14.8141 8.625 13.9816 8.625C13.1491 8.625 12.6841 8.9025 12.3466 9.105C12.0691 9.2775 11.8966 9.375 11.4841 9.375C11.0716 9.375 10.8991 9.27 10.6216 9.105C10.2841 8.9025 9.81914 8.625 8.98664 8.625C8.15414 8.625 7.68914 8.9025 7.35164 9.105C7.07414 9.2775 6.90914 9.375 6.48914 9.375C6.07664 9.375 5.90414 9.27 5.62664 9.105C5.28914 8.9025 4.82414 8.625 3.99164 8.625C3.15914 8.625 2.69414 8.9025 2.35664 9.105C2.07914 9.2775 1.91414 9.375 1.49414 9.375V10.875C2.32664 10.875 2.79164 10.5975 3.15164 10.395C3.42914 10.2225 3.59414 10.125 4.00664 10.125Z" fill="#040E24"/>
<path fill-rule="evenodd" clip-rule="evenodd" d="M1.49414 12V13.5C1.49414 14.325 2.16914 15 2.99414 15H14.9941C15.8191 15 16.4941 14.325 16.4941 13.5V12H1.49414Z" fill="#040E24"/>
</svg>
