<svg width="18" height="18" viewBox="0 0 18 18" fill="none" xmlns="http://www.w3.org/2000/svg">
<g clip-path="url(#clip0_0_5539)">
<path d="M13.545 17.2464H14.79C15.42 17.2464 15.9375 16.7664 16.0125 16.1514L17.25 3.79141H13.5V0.753906H12.0225V3.79141H8.295L8.52 5.54641C9.8025 5.89891 11.0025 6.53641 11.7225 7.24141C12.8025 8.30641 13.545 9.40891 13.545 11.2089V17.2464ZM0.75 16.4964V15.7539H12.0225V16.4964C12.0225 16.9089 11.685 17.2464 11.265 17.2464H1.5075C1.0875 17.2464 0.75 16.9089 0.75 16.4964ZM12.0225 11.2464C12.0225 5.24641 0.75 5.24641 0.75 11.2464H12.0225ZM0.765 12.7539H12.015V14.2539H0.765V12.7539Z" fill="#040E24"/>
</g>
<defs>
<clipPath id="clip0_0_5539">
<rect width="18" height="18" fill="white"/>
</clipPath>
</defs>
</svg>
