<svg width="18" height="18" viewBox="0 0 18 18" fill="none" xmlns="http://www.w3.org/2000/svg">
<path d="M3.87395 10.5645H0.897881C0.947163 11.7619 1.29297 12.9321 1.90789 13.9824H4.42381C4.08095 12.8708 3.89606 11.7215 3.87395 10.5645Z" fill="#040E24"/>
<path d="M13.6928 5.90392H16.0181C14.9682 4.45011 13.4265 3.37123 11.6424 2.8418C12.5807 3.69106 13.2844 4.74207 13.6928 5.90392Z" fill="#040E24"/>
<path d="M5.32784 5.90365H8.83456V2.50781C7.37798 2.68119 6.1038 3.98683 5.32784 5.90365Z" fill="#040E24"/>
<path d="M14.4572 9.9428H17.4333C17.384 8.74534 17.0382 7.57511 16.4233 6.5249H13.9073C14.2502 7.6365 14.4351 8.78575 14.4572 9.9428Z" fill="#040E24"/>
<path d="M4.42281 6.5249H1.9069C1.29232 7.57519 0.946858 8.74541 0.897881 9.9428H3.87395C3.89574 8.78579 4.08029 7.63654 4.42281 6.5249Z" fill="#040E24"/>
<path d="M4.63821 14.604H2.31297C3.36284 16.0578 4.90454 17.1367 6.68868 17.6661C5.75039 16.8169 5.04662 15.7659 4.63821 14.604Z" fill="#040E24"/>
<path d="M5.10111 13.9824H8.8346V10.5645H4.53569C4.55655 11.7227 4.7468 12.8727 5.10111 13.9824Z" fill="#040E24"/>
<path d="M8.83456 17.9998V14.604H5.32784C6.1038 16.5208 7.37798 17.8265 8.83456 17.9998Z" fill="#040E24"/>
<path d="M4.63821 5.90392C5.04643 4.74213 5.74997 3.69113 6.68802 2.8418C4.90412 3.37135 3.36268 4.45022 2.31297 5.90392H4.63821Z" fill="#040E24"/>
<path d="M4.53569 9.9428H8.8346V6.5249H5.10111C4.7468 7.63453 4.55655 8.78458 4.53569 9.9428ZM5.51458 7.98248C5.53618 7.92008 5.57828 7.86569 5.63483 7.82712C5.69138 7.78855 5.7595 7.76778 5.8294 7.76778H6.36734L6.53287 7.28772C6.55463 7.22555 6.59676 7.17142 6.65323 7.13305C6.7097 7.09468 6.77764 7.07402 6.84735 7.07402C6.91707 7.07402 6.98501 7.09468 7.04148 7.13305C7.09795 7.17142 7.14008 7.22555 7.16184 7.28772L7.32737 7.76778H7.86531C7.93522 7.76776 8.00335 7.78853 8.05991 7.82709C8.11648 7.86565 8.15859 7.92004 8.1802 7.98244C8.20181 8.04485 8.20182 8.11208 8.18022 8.17449C8.15862 8.2369 8.11652 8.29129 8.05996 8.32986L7.62497 8.6266L7.79049 9.10666C7.8122 9.16912 7.81225 9.23643 7.79065 9.29891C7.76904 9.3614 7.72689 9.41586 7.67025 9.45445C7.61361 9.49305 7.54539 9.5138 7.4754 9.51372C7.40541 9.51365 7.33724 9.49276 7.28069 9.45404L6.84835 9.15731L6.41336 9.45404C6.35681 9.49276 6.28864 9.51365 6.21865 9.51372C6.14866 9.5138 6.08044 9.49305 6.0238 9.45445C5.96716 9.41586 5.92501 9.3614 5.9034 9.29891C5.8818 9.23643 5.88185 9.16912 5.90355 9.10666L6.06908 8.6266L5.63409 8.32986C5.57766 8.2912 5.53572 8.23678 5.51425 8.17438C5.49279 8.11198 5.4929 8.04481 5.51458 7.98248Z" fill="#040E24"/>
<path d="M6.84824 8.46306C6.86878 8.46313 6.88927 8.46489 6.90948 8.46835C6.91441 8.43018 6.92711 8.39326 6.94689 8.3596C6.9096 8.34325 6.87591 8.32048 6.84757 8.29248C6.81923 8.32048 6.78554 8.34325 6.74826 8.3596C6.76803 8.39326 6.78073 8.43018 6.78567 8.46835C6.80631 8.46482 6.82725 8.46305 6.84824 8.46306Z" fill="#040E24"/>
<path d="M11.6432 17.6661C13.4271 17.1366 14.9685 16.0577 16.0182 14.604H13.693C13.2847 15.7658 12.5812 16.8168 11.6432 17.6661Z" fill="#040E24"/>
<path d="M11.4829 12.5021C11.5034 12.5022 11.5239 12.504 11.5441 12.5074C11.5491 12.4692 11.5618 12.4323 11.5815 12.3987C11.5443 12.3823 11.5106 12.3595 11.4822 12.3315C11.4539 12.3595 11.4202 12.3823 11.3829 12.3987C11.4027 12.4323 11.4154 12.4692 11.4203 12.5074C11.441 12.5039 11.4619 12.5021 11.4829 12.5021Z" fill="#040E24"/>
<path d="M13.2301 6.5249H9.49664V9.9428H13.7956C13.7747 8.78458 13.5844 7.63453 13.2301 6.5249Z" fill="#040E24"/>
<path d="M14.4573 10.5645C14.4355 11.7215 14.2509 12.8707 13.9084 13.9824H16.4243C17.0392 12.9321 17.385 11.7619 17.4343 10.5645H14.4573Z" fill="#040E24"/>
<path d="M9.49664 5.90365H13.0034C12.2274 3.98683 10.9532 2.68119 9.49664 2.50781V5.90365Z" fill="#040E24"/>
<path d="M10.8208 1.24287H9.49661V0H8.83453V1.24287H7.51036V2.17503H10.8208V1.24287Z" fill="#040E24"/>
<path d="M9.49664 13.9824H13.2301C13.5844 12.8727 13.7747 11.7227 13.7956 10.5645H9.49664V13.9824ZM10.1491 12.022C10.1707 11.9596 10.2128 11.9052 10.2694 11.8667C10.3259 11.8281 10.394 11.8073 10.4639 11.8073H11.0019L11.1674 11.3273C11.1892 11.2651 11.2313 11.211 11.2878 11.1726C11.3442 11.1342 11.4122 11.1136 11.4819 11.1136C11.5516 11.1136 11.6196 11.1342 11.676 11.1726C11.7325 11.211 11.7746 11.2651 11.7964 11.3273L11.9619 11.8073H12.4999C12.5698 11.8073 12.6379 11.8281 12.6945 11.8666C12.751 11.9052 12.7931 11.9596 12.8147 12.022C12.8364 12.0844 12.8364 12.1516 12.8148 12.214C12.7932 12.2765 12.7511 12.3308 12.6945 12.3694L12.2595 12.6662L12.425 13.1462C12.4467 13.2087 12.4468 13.276 12.4252 13.3385C12.4036 13.401 12.3614 13.4554 12.3048 13.494C12.2482 13.5326 12.1799 13.5533 12.1099 13.5533C12.04 13.5532 11.9718 13.5323 11.9152 13.4936L11.4829 13.1969L11.0479 13.4936C10.9914 13.5323 10.9232 13.5532 10.8532 13.5533C10.7832 13.5533 10.715 13.5326 10.6583 13.494C10.6017 13.4554 10.5596 13.401 10.5379 13.3385C10.5163 13.276 10.5164 13.2087 10.5381 13.1462L10.7036 12.6662L10.2686 12.3694C10.2122 12.3308 10.1703 12.2763 10.1488 12.2139C10.1273 12.1515 10.1274 12.0844 10.1491 12.022Z" fill="#040E24"/>
<path d="M9.49664 14.604V17.9998C10.9532 17.8265 12.2274 16.5208 13.0034 14.604H9.49664Z" fill="#040E24"/>
<path d="M16.7666 2.30689L17.1102 2.24816L17.4552 2.30906L17.4992 1.98374L17.669 1.69477L17.3512 1.5534L17.1105 1.31445L16.8699 1.5534L16.5521 1.69291L16.7209 1.98188L16.7666 2.30689Z" fill="#040E24"/>
<path d="M1.5387 2.92847L1.88232 2.86974L2.22727 2.93064L2.2713 2.60532L2.44112 2.31635L2.12332 2.17498L1.88266 1.93604L1.64199 2.17498L1.32419 2.31449L1.49302 2.60346L1.5387 2.92847Z" fill="#040E24"/>
<path d="M0.558467 16.8506L0.3178 17.0895L0 17.229L0.168831 17.518L0.214515 17.843L0.558136 17.7843L0.903082 17.8452L0.94711 17.5199L1.11693 17.2309L0.799135 17.0895L0.558467 16.8506Z" fill="#040E24"/>
<path d="M17.6822 16.4679L17.4415 16.229L17.2009 16.4679L16.8831 16.6075L17.0519 16.8964L17.0976 17.2214L17.4412 17.1627L17.7861 17.2236L17.8302 16.8983L18 16.6093L17.6822 16.4679Z" fill="#040E24"/>
</svg>
