<svg width="18" height="18" viewBox="0 0 18 18" fill="none" xmlns="http://www.w3.org/2000/svg">
<path d="M5.62341 8.25132C7.07091 8.25132 8.24841 7.07382 8.24841 5.62632C8.24841 4.17882 7.07091 3.00132 5.62341 3.00132C4.17591 3.00132 2.99841 4.17882 2.99841 5.62632C2.99841 7.07382 4.17591 8.25132 5.62341 8.25132ZM5.62341 4.50132C6.24591 4.50132 6.74841 5.00382 6.74841 5.62632C6.74841 6.24882 6.24591 6.75132 5.62341 6.75132C5.00091 6.75132 4.49841 6.24882 4.49841 5.62632C4.49841 5.00382 5.00091 4.50132 5.62341 4.50132Z" fill="white"/>
<path d="M13.9409 2.99805L3.00029 13.9387L4.06094 14.9993L15.0015 4.0587L13.9409 2.99805Z" fill="white"/>
<path d="M12.3734 9.75132C10.9259 9.75132 9.74841 10.9288 9.74841 12.3763C9.74841 13.8238 10.9259 15.0013 12.3734 15.0013C13.8209 15.0013 14.9984 13.8238 14.9984 12.3763C14.9984 10.9288 13.8209 9.75132 12.3734 9.75132ZM12.3734 13.5013C11.7509 13.5013 11.2484 12.9988 11.2484 12.3763C11.2484 11.7538 11.7509 11.2513 12.3734 11.2513C12.9959 11.2513 13.4984 11.7538 13.4984 12.3763C13.4984 12.9988 12.9959 13.5013 12.3734 13.5013Z" fill="white"/>
</svg>
