<svg width="24" height="24" viewBox="0 0 24 24" fill="none" xmlns="http://www.w3.org/2000/svg">
<path d="M12.7875 21.5024L2.9975 11.7124V13.7124C2.9975 14.2424 3.2075 14.7524 3.5875 15.1224L11.3775 22.9124C12.1575 23.6924 13.4275 23.6924 14.2075 22.9124L20.4175 16.7024C21.1975 15.9224 21.1975 14.6524 20.4175 13.8724L12.7875 21.5024Z" fill="#1065CA"/>
<path d="M11.3775 17.9124C11.7675 18.3024 12.2775 18.5024 12.7875 18.5024C13.2975 18.5024 13.8075 18.3024 14.1975 17.9124L20.4075 11.7024C21.1875 10.9224 21.1875 9.65244 20.4075 8.87244L12.6175 1.08244C12.2475 0.712441 11.7375 0.502441 11.2075 0.502441H4.9975C3.8975 0.502441 2.9975 1.40244 2.9975 2.50244V8.71244C2.9975 9.24244 3.2075 9.75244 3.5875 10.1224L11.3775 17.9124ZM4.9975 2.50244H11.2075L18.9975 10.2924L12.7875 16.5024L4.9975 8.71244V2.50244Z" fill="#1065CA"/>
<path d="M7.2475 6.00244C7.93785 6.00244 8.4975 5.4428 8.4975 4.75244C8.4975 4.06209 7.93785 3.50244 7.2475 3.50244C6.55714 3.50244 5.9975 4.06209 5.9975 4.75244C5.9975 5.4428 6.55714 6.00244 7.2475 6.00244Z" fill="#1065CA"/>
</svg>
