<svg width="18" height="18" viewBox="0 0 18 18" fill="none" xmlns="http://www.w3.org/2000/svg">
<path d="M2.73057 6.67766C2.76226 6.68459 2.79396 6.69152 2.82113 6.69844C2.8483 6.70884 2.87547 6.72269 2.89811 6.74001C2.92076 6.75386 2.9434 6.76772 2.96604 6.78503C2.98868 6.80235 3.00226 6.8266 3.02038 6.84391C3.03396 6.86469 3.05208 6.88547 3.06113 6.90626C3.07019 6.92704 3.07472 6.95475 3.07925 6.97553C3.07925 6.99284 3.09283 7.0067 3.09283 7.02748V10.9032C3.09283 11.3569 3.57736 11.7275 4.17057 11.7275C4.76377 11.7275 5.2483 11.3569 5.2483 10.9032V7.53662C5.2483 7.40847 5.33434 7.29417 5.47019 7.22836C5.60604 7.16256 5.77811 7.15563 5.93208 7.21105C6.58868 7.45349 7.29962 7.57818 8.05132 7.57818C8.31396 7.57818 8.52679 7.74096 8.52679 7.94185V9.12637C8.52679 9.58009 9.01132 9.95069 9.60453 9.95069C10.1977 9.95069 10.6868 9.58009 10.6868 9.12637V7.1868C10.6868 7.1868 10.6913 7.16602 10.6913 7.15563C10.6959 7.13138 10.7004 7.10368 10.7094 7.0829C10.7185 7.06211 10.7321 7.03787 10.7457 7.01709C10.7592 6.99977 10.7728 6.98245 10.7909 6.96167C10.8091 6.94435 10.8317 6.92704 10.8589 6.90972C10.8725 6.90279 10.877 6.8924 10.8906 6.88547C10.9449 6.85777 10.9947 6.82659 11.0491 6.79542L11.1532 6.73654C11.1532 6.73654 11.194 6.71923 11.2211 6.70884C11.2347 6.70191 11.2483 6.69498 11.2664 6.69152C11.3208 6.67766 11.3751 6.66727 11.434 6.66727C11.4974 6.66727 11.5517 6.67766 11.6106 6.69152C11.6196 6.69498 11.6242 6.69498 11.6287 6.69844C11.6423 6.70191 11.6604 6.70537 11.674 6.70884C12.0951 6.88894 12.5887 6.98592 13.0959 6.98592C13.8974 6.98592 14.6491 6.74693 15.2196 6.31399C15.7947 5.87759 16.1117 5.29918 16.1117 4.67921C16.1117 3.4081 14.7623 2.36905 13.0959 2.36905C13.0777 2.36905 13.0596 2.36905 13.037 2.37251C13.0234 2.37251 13.0098 2.36905 12.9962 2.36905C12.9872 2.37251 12.9736 2.37597 12.9645 2.37597C12.9328 2.37597 12.9011 2.37251 12.8694 2.36558H12.8468C12.7925 2.35519 12.7426 2.33788 12.7019 2.31363C12.6883 2.3067 12.6792 2.29631 12.6702 2.28939C12.6385 2.27207 12.6113 2.24782 12.5887 2.22358C12.5751 2.21319 12.566 2.2028 12.557 2.19241C12.5525 2.18548 12.5434 2.17855 12.5389 2.17163C11.7238 0.852026 9.96679 0 8.06038 0C6.28076 0 4.63698 0.727339 3.76755 1.90494C3.75849 1.91879 3.74491 1.92572 3.73585 1.93264C3.70868 1.96035 3.68151 1.98806 3.64981 2.00538C3.6317 2.01923 3.60906 2.02616 3.58642 2.03309C3.55472 2.04694 3.52302 2.06079 3.49132 2.06772C3.45962 2.07465 3.4234 2.07465 3.38717 2.07811C3.36453 2.07811 3.34642 2.08504 3.31925 2.08504C3.21962 2.07811 3.11547 2.07465 3.01585 2.07465C1.35396 2.07465 0 3.10678 0 4.38135C0 5.01864 0.348679 5.63168 0.955472 6.06116C1.43547 6.40751 2.03321 6.61878 2.68076 6.6742C2.7034 6.67766 2.72151 6.68459 2.74415 6.68805L2.73057 6.67766Z" fill="white"/>
<path d="M17.5245 8.21236H14.6808V7.44346C14.1826 7.60971 13.6483 7.69976 13.0868 7.69976C12.5751 7.69976 12.077 7.62356 11.6241 7.48502V9.11634C11.6241 9.97183 10.714 10.6645 9.59547 10.6645C8.47698 10.6645 7.57132 9.97183 7.57132 9.11634V8.27817C7.09584 8.25046 6.63848 8.17773 6.19018 8.06343V10.8931C6.19018 11.7486 5.27999 12.4413 4.16603 12.4413C3.05207 12.4413 2.14188 11.7486 2.14188 10.8931V7.31877C1.88377 7.27375 1.63924 7.21833 1.40829 7.13867V15.8217H14.6808V15.0978H17.5245C17.7872 15.0978 18 14.9351 18 14.7342V8.57257C18 8.37168 17.7872 8.2089 17.5245 8.2089V8.21236ZM17.0491 14.0138C17.0491 14.2146 16.8362 14.3774 16.5736 14.3774H14.6762V8.9397H16.5736C16.8362 8.9397 17.0491 9.10249 17.0491 9.30337V14.0172V14.0138Z" fill="white"/>
<path d="M1.40829 16.9125C1.40829 17.5151 2.04679 18 2.83018 18H13.2589C14.0423 18 14.6808 17.5151 14.6808 16.9125V16.5488H1.40829V16.9125Z" fill="white"/>
</svg>
