<svg width="40" height="40" viewBox="0 0 40 40" fill="none" xmlns="http://www.w3.org/2000/svg">
<path d="M31.6667 2.5H8.33333C6.48333 2.5 5 4 5 5.83333V29.1667C5 31 6.48333 32.5 8.33333 32.5H15L20 37.5L25 32.5H31.6667C33.5 32.5 35 31 35 29.1667V5.83333C35 4 33.5 2.5 31.6667 2.5ZM31.6667 29.1667H23.6167L20 32.7833L16.3833 29.1667H8.33333V5.83333H31.6667V29.1667ZM18.3333 24.1667H21.6667V27.5H18.3333V24.1667ZM20 10.8333C21.8333 10.8333 23.3333 12.3333 23.3333 14.1667C23.3333 17.5 18.3333 17.0833 18.3333 22.5H21.6667C21.6667 18.75 26.6667 18.3333 26.6667 14.1667C26.6667 10.4833 23.6833 7.5 20 7.5C16.3167 7.5 13.3333 10.4833 13.3333 14.1667H16.6667C16.6667 12.3333 18.1667 10.8333 20 10.8333Z" fill="#223358"/>
</svg>
