<svg width="18" height="18" viewBox="0 0 18 18" fill="none" xmlns="http://www.w3.org/2000/svg">
<path d="M16.6351 1.3809C14.7945 -0.460301 11.831 -0.460301 10.0216 1.3809C9.80324 1.59935 9.61607 1.84901 9.42889 2.09866C9.30411 2.2859 9.21052 2.44194 9.11693 2.62918C8.89857 3.06607 8.74259 3.53418 8.68019 4.00228C11.1135 4.96969 13.0476 6.90452 14.0147 9.33865C14.4826 9.27624 14.9505 9.1202 15.3873 8.90175C15.5744 8.80813 15.7616 8.71451 15.9176 8.58969C16.1672 8.43365 16.3855 8.24641 16.6039 8.02796C18.4444 6.21797 18.4756 3.25331 16.6351 1.3809C16.6351 1.41211 16.6351 1.41211 16.6351 1.3809ZM13.3907 9.43227L3.81367 16.7659C3.15856 17.2652 2.28508 17.2652 1.62997 16.7971L0.50693 17.9205C0.382147 18.0454 0.163777 18.0142 0.0701903 17.8893C-0.0233968 17.7645 -0.0233968 17.6085 0.0701903 17.4836L1.19323 16.3602C0.725299 15.7048 0.756495 14.8311 1.22443 14.1757L8.55541 4.59521C10.7391 5.53141 12.4861 7.279 13.3907 9.43227ZM10.8639 8.09038C10.8639 7.84072 10.7703 7.59107 10.5831 7.43503C10.2088 7.09176 9.61607 7.09176 9.27291 7.43503C8.89857 7.80951 8.89857 8.40244 9.27291 8.74572C9.64726 9.1202 10.24 9.1202 10.5831 8.74572C10.7703 8.58969 10.8639 8.34003 10.8639 8.09038Z" fill="#040E24"/>
</svg>
