<svg width="18" height="18" viewBox="0 0 18 18" fill="none" xmlns="http://www.w3.org/2000/svg">
<path d="M8.9955 0C4.0275 0 0 4.0275 0 8.9955C0 13.9725 4.0275 18 8.9955 18C13.9635 18 18 13.9725 18 8.9955C18 4.0275 13.9635 0 8.9955 0ZM10.3477 7.4745C9.819 7.77825 9.1395 7.6005 8.83575 7.07175C8.523 6.543 8.70975 5.8635 9.2385 5.55975C9.76725 5.256 10.4467 5.43375 10.7505 5.9625C11.0542 6.489 10.8743 7.1685 10.3477 7.4745ZM13.4707 9.26325C12.942 9.576 12.2625 9.38925 11.9587 8.8605C11.655 8.33175 11.8328 7.65225 12.3705 7.3485C12.8993 7.04475 13.5787 7.2225 13.8825 7.75125C14.1862 8.289 14.0085 8.9595 13.4707 9.26325ZM13.4887 5.6655C12.96 5.96925 12.2805 5.7825 11.9767 5.25375C11.664 4.725 11.8507 4.0455 12.3795 3.74175C12.9082 3.438 13.5877 3.61575 13.8915 4.1445C14.1952 4.68225 14.0175 5.35275 13.4887 5.6655Z" fill="#040E24"/>
</svg>
