<svg width="40" height="40" viewBox="0 0 40 40" fill="none" xmlns="http://www.w3.org/2000/svg">
<path d="M20 12.716L22.4 18.3827L24.4 18.5493L28.5167 18.8993L23.8667 22.9327L24.3167 24.8993L25.25 28.916L21.7167 26.7827L20 25.716L18.2833 26.7493L14.75 28.8827L15.6833 24.866L16.1333 22.8993L11.4833 18.866L15.6 18.516L17.6 18.3493L18.3833 16.4993L20 12.716ZM20 4.16602L15.3167 15.216L3.33334 16.2327L12.4333 24.116L9.70001 35.8327L20 29.616L30.3 35.8327L27.5667 24.116L36.6667 16.2327L24.6833 15.216L20 4.16602Z" fill="#223358"/>
</svg>
