<svg width="14" height="14" viewBox="0 0 14 14" fill="none" xmlns="http://www.w3.org/2000/svg">
<path fill-rule="evenodd" clip-rule="evenodd" d="M6.99416 1.1665C3.77416 1.1665 1.16666 3.77984 1.16666 6.99984C1.16666 10.2198 3.77416 12.8332 6.99416 12.8332C10.22 12.8332 12.8333 10.2198 12.8333 6.99984C12.8333 3.77984 10.22 1.1665 6.99416 1.1665ZM6.99999 11.6665C4.42166 11.6665 2.33332 9.57817 2.33332 6.99984C2.33332 4.4215 4.42166 2.33317 6.99999 2.33317C9.57832 2.33317 11.6667 4.4215 11.6667 6.99984C11.6667 9.57817 9.57832 11.6665 6.99999 11.6665ZM6.41666 7.624L9.61916 9.54317L10.2142 8.53984L7.58332 6.959V3.74484H6.41666V7.624Z" fill="#1065CA"/>
</svg>
