<svg width="14" height="14" viewBox="0 0 14 14" fill="none" xmlns="http://www.w3.org/2000/svg">
<path d="M11.9583 1.75L11.865 1.7675L8.75 2.975L5.25 1.75L1.96 2.85833C1.8375 2.89917 1.75 3.00417 1.75 3.13833V11.9583C1.75 12.1217 1.87833 12.25 2.04167 12.25L2.135 12.2325L5.25 11.025L8.75 12.25L12.04 11.1417C12.1625 11.1008 12.25 10.9958 12.25 10.8617V2.04167C12.25 1.87833 12.1217 1.75 11.9583 1.75ZM5.83333 3.19083L8.16667 4.0075V10.8092L5.83333 9.9925V3.19083ZM2.91667 3.76833L4.66667 3.17917V10.0042L2.91667 10.6808V3.76833ZM11.0833 10.2317L9.33333 10.8208V4.00167L11.0833 3.325V10.2317Z" fill="#1065CA"/>
</svg>
