<svg width="18" height="18" viewBox="0 0 18 18" fill="none" xmlns="http://www.w3.org/2000/svg">
<path d="M14.9062 0H3.09375C1.38797 0 0 1.645 0 3.66667V14.3333C0 16.355 1.38797 18 3.09375 18H14.9062C16.612 18 18 16.355 18 14.3333V3.66667C18 1.645 16.612 0 14.9062 0ZM3.09375 2H14.9062C15.6817 2 16.3125 2.74767 16.3125 3.66667V3.777L9.39319 8.867C9.15075 9.04533 8.84925 9.04533 8.60681 8.867L1.6875 3.777V3.66667C1.6875 2.74767 2.31834 2 3.09375 2ZM14.9062 16H3.09375C2.31834 16 1.6875 15.2523 1.6875 14.3333V6.131L7.71694 10.5663C8.11266 10.8577 8.55619 11.003 9 11.003C9.44381 11.003 9.88734 10.8573 10.2831 10.5663L16.3125 6.131V14.3333C16.3125 15.2523 15.6817 16 14.9062 16Z" fill="#040E24"/>
</svg>
