<svg width="18" height="18" viewBox="0 0 18 18" fill="none" xmlns="http://www.w3.org/2000/svg">
<path d="M16.4623 8.25322C15.1198 8.23072 13.6873 6.79072 14.4523 5.08822C12.2173 5.83822 10.1248 3.89572 10.5598 1.66822C5.21226 0.543216 1.49976 4.94572 1.49976 9.01072C1.49976 13.1507 4.85976 16.5107 8.99976 16.5107C13.4173 16.5107 16.9048 12.7007 16.4623 8.25322ZM6.37476 11.2607C5.75226 11.2607 5.24976 10.7582 5.24976 10.1357C5.24976 9.51322 5.75226 9.01072 6.37476 9.01072C6.99726 9.01072 7.49976 9.51322 7.49976 10.1357C7.49976 10.7582 6.99726 11.2607 6.37476 11.2607ZM7.87476 7.51072C7.25226 7.51072 6.74976 7.00822 6.74976 6.38572C6.74976 5.76322 7.25226 5.26072 7.87476 5.26072C8.49726 5.26072 8.99976 5.76322 8.99976 6.38572C8.99976 7.00822 8.49726 7.51072 7.87476 7.51072ZM11.2498 12.0107C10.8373 12.0107 10.4998 11.6732 10.4998 11.2607C10.4998 10.8482 10.8373 10.5107 11.2498 10.5107C11.6623 10.5107 11.9998 10.8482 11.9998 11.2607C11.9998 11.6732 11.6623 12.0107 11.2498 12.0107Z" fill="#040E24"/>
</svg>
